{
  "extensionsUsed": [
    "KHR_lights_punctual"
  ],
  "accessors": [
    {
      "bufferView": 0,
      "componentType": 5126,
      "count": 28,
      "type": "VEC3",
      "max": [
        0.0001276777038583532,
        2.8423305593605619E-06,
        0.00014746600936632603
      ],
      "min": [
        -0.00012975931167602539,
        -9.6348143415525556E-05,
        -0.00014746600936632603
      ]
    },
    {
      "bufferView": 1,
      "componentType": 5126,
      "count": 28,
      "type": "VEC3",
      "max": [
        0.86581099033355713,
        0.99975234270095825,
        1.0
      ],
      "min": [
        -0.86581087112426758,
        -0.99975234270095825,
        -1.0
      ]
    },
    {
      "bufferView": 2,
      "componentType": 5126,
      "count": 28,
      "type": "VEC4",
      "max": [
        -0.022256180644035339,
        0.015737602487206459,
        0.70711004734039307,
        1.0
      ],
      "min": [
        -0.70693367719650269,
        -0.99975234270095825,
        0.0,
        1.0
      ]
    },
    {
      "bufferView": 3,
      "componentType": 5126,
      "count": 28,
      "type": "VEC2",
      "max": [
        0.86731880903244019,
        0.84303253889083862
      ],
      "min": [
        0.619499921798706,
        0.73359471559524536
      ]
    },
    {
      "bufferView": 4,
      "componentType": 5121,
      "count": 72,
      "type": "SCALAR",
      "max": [
        27.0
      ],
      "min": [
        0.0
      ]
    },
    {
      "bufferView": 5,
      "componentType": 5126,
      "count": 40,
      "type": "VEC3",
      "max": [
        0.00074981420766562223,
        0.00065770413493737578,
        0.0048773284070193768
      ],
      "min": [
        -0.00074981420766562223,
        -0.00065770430956035852,
        2.2866577182867331E-06
      ]
    },
    {
      "bufferView": 6,
      "componentType": 5126,
      "count": 40,
      "type": "VEC3",
      "max": [
        0.99975234270095825,
        0.87693899869918823,
        1.0
      ],
      "min": [
        -0.99975234270095825,
        -0.876939058303833,
        -1.0
      ]
    },
    {
      "bufferView": 7,
      "componentType": 5126,
      "count": 40,
      "type": "VEC4",
      "max": [
        0.87693899869918823,
        0.99981814622879028,
        0.94753766059875488,
        1.0
      ],
      "min": [
        -0.87693923711776733,
        -0.99975234270095825,
        -0.95189046859741211,
        1.0
      ]
    },
    {
      "bufferView": 8,
      "componentType": 5126,
      "count": 40,
      "type": "VEC2",
      "max": [
        0.79364877939224243,
        0.99597746133804321
      ],
      "min": [
        0.004018428735435009,
        0.0049555301666259766
      ]
    },
    {
      "bufferView": 9,
      "componentType": 5121,
      "count": 96,
      "type": "SCALAR",
      "max": [
        39.0
      ],
      "min": [
        0.0
      ]
    },
    {
      "bufferView": 10,
      "componentType": 5126,
      "count": 58,
      "type": "VEC3",
      "max": [
        4.2118219425901771E-05,
        0.0005409297882579267,
        6.7784945713356137E-05
      ],
      "min": [
        -0.0022838846780359745,
        -0.00045056454837322235,
        -0.0017203831812366843
      ]
    },
    {
      "bufferView": 11,
      "componentType": 5126,
      "count": 58,
      "type": "VEC3",
      "max": [
        0.99309605360031128,
        0.953594982624054,
        0.89760887622833252
      ],
      "min": [
        -0.86566919088363647,
        -0.94811087846755981,
        -0.986040472984314
      ]
    },
    {
      "bufferView": 12,
      "componentType": 5126,
      "count": 58,
      "type": "VEC4",
      "max": [
        0.862978994846344,
        0.99149018526077271,
        0.79026001691818237,
        1.0
      ],
      "min": [
        -0.99048095941543579,
        -0.99978595972061157,
        -0.98180651664733887,
        1.0
      ]
    },
    {
      "bufferView": 13,
      "componentType": 5126,
      "count": 58,
      "type": "VEC2",
      "max": [
        0.96251189708709717,
        0.97842949628829956
      ],
      "min": [
        0.12076190114021301,
        0.036496102809906006
      ]
    },
    {
      "bufferView": 14,
      "componentType": 5121,
      "count": 132,
      "type": "SCALAR",
      "max": [
        57.0
      ],
      "min": [
        0.0
      ]
    },
    {
      "bufferView": 15,
      "componentType": 5126,
      "count": 36,
      "type": "VEC3",
      "max": [
        0.0012060231529176235,
        0.00017601400031708181,
        0.005289596039801836
      ],
      "min": [
        -0.00013533220044337213,
        -0.00012266104749869555,
        0.0050383340567350388
      ]
    },
    {
      "bufferView": 16,
      "componentType": 5126,
      "count": 36,
      "type": "VEC3",
      "max": [
        0.9554172158241272,
        0.99775838851928711,
        0.9987175464630127
      ],
      "min": [
        -0.9996410608291626,
        -0.998279333114624,
        -0.99873119592666626
      ]
    },
    {
      "bufferView": 17,
      "componentType": 5126,
      "count": 36,
      "type": "VEC4",
      "max": [
        0.99806743860244751,
        0.99993157386779785,
        0.99965667724609375,
        1.0
      ],
      "min": [
        -0.99812394380569458,
        -0.24050313234329224,
        -0.99696403741836548,
        1.0
      ]
    },
    {
      "bufferView": 18,
      "componentType": 5126,
      "count": 36,
      "type": "VEC2",
      "max": [
        0.9959067702293396,
        0.99598300457000732
      ],
      "min": [
        0.03612687811255455,
        0.015729010105133057
      ]
    },
    {
      "bufferView": 19,
      "componentType": 5121,
      "count": 60,
      "type": "SCALAR",
      "max": [
        35.0
      ],
      "min": [
        0.0
      ]
    },
    {
      "bufferView": 20,
      "componentType": 5126,
      "count": 47,
      "type": "VEC3",
      "max": [
        0.0011890570167452097,
        0.00015057131531648338,
        0.00048124964814633131
      ],
      "min": [
        -0.00022745429305359721,
        -0.00015357302618212998,
        -5.6217031669802964E-05
      ]
    },
    {
      "bufferView": 21,
      "componentType": 5126,
      "count": 47,
      "type": "VEC3",
      "max": [
        0.998965859413147,
        0.99847477674484253,
        0.96781474351882935
      ],
      "min": [
        -0.910087525844574,
        -0.99994277954101563,
        -0.96957558393478394
      ]
    },
    {
      "bufferView": 22,
      "componentType": 5126,
      "count": 47,
      "type": "VEC4",
      "max": [
        0.95957231521606445,
        0.99998307228088379,
        0.93307006359100342,
        1.0
      ],
      "min": [
        -1.0,
        -0.999988317489624,
        -0.9513435959815979,
        1.0
      ]
    },
    {
      "bufferView": 23,
      "componentType": 5126,
      "count": 47,
      "type": "VEC2",
      "max": [
        0.96007746458053589,
        0.99597853422164917
      ],
      "min": [
        0.0040322607383131981,
        0.019788205623626709
      ]
    },
    {
      "bufferView": 24,
      "componentType": 5121,
      "count": 72,
      "type": "SCALAR",
      "max": [
        46.0
      ],
      "min": [
        0.0
      ]
    },
    {
      "bufferView": 25,
      "componentType": 5126,
      "count": 16,
      "type": "VEC3",
      "max": [
        0.00013723141455557197,
        5.4607757192570716E-05,
        3.9123078749980778E-05
      ],
      "min": [
        -0.00053493509767577052,
        -2.5811617888393812E-05,
        -0.000206780678126961
      ]
    },
    {
      "bufferView": 26,
      "componentType": 5126,
      "count": 16,
      "type": "VEC3",
      "max": [
        0.43691831827163696,
        0.999728262424469,
        0.87246936559677124
      ],
      "min": [
        -0.46456366777420044,
        -0.58215302228927612,
        -0.85777288675308228
      ]
    },
    {
      "bufferView": 27,
      "componentType": 5126,
      "count": 16,
      "type": "VEC4",
      "max": [
        0.99941825866699219,
        -0.012134123593568802,
        0.52669006586074829,
        1.0
      ],
      "min": [
        0.84971112012863159,
        -0.029523918405175209,
        0.0276646688580513,
        1.0
      ]
    },
    {
      "bufferView": 28,
      "componentType": 5126,
      "count": 16,
      "type": "VEC2",
      "max": [
        0.95296692848205566,
        0.96370315551757813
      ],
      "min": [
        0.865544855594635,
        0.92784613370895386
      ]
    },
    {
      "bufferView": 29,
      "componentType": 5121,
      "count": 36,
      "type": "SCALAR",
      "max": [
        15.0
      ],
      "min": [
        0.0
      ]
    },
    {
      "bufferView": 30,
      "componentType": 5126,
      "count": 99,
      "type": "VEC3",
      "max": [
        0.00017331892740912735,
        9.3041220679879189E-05,
        0.00027334570768289268
      ],
      "min": [
        -0.00025510421255603433,
        -0.00019971936126239598,
        0.0
      ]
    },
    {
      "bufferView": 31,
      "componentType": 5126,
      "count": 99,
      "type": "VEC3",
      "max": [
        1.0,
        0.99982941150665283,
        1.0
      ],
      "min": [
        -1.0,
        -0.99990165233612061,
        -0.99999964237213135
      ]
    },
    {
      "bufferView": 32,
      "componentType": 5126,
      "count": 99,
      "type": "VEC4",
      "max": [
        0.75988489389419556,
        1.0,
        1.0,
        1.0
      ],
      "min": [
        -0.92354810237884521,
        -1.0,
        -0.9998212456703186,
        1.0
      ]
    },
    {
      "bufferView": 33,
      "componentType": 5126,
      "count": 99,
      "type": "VEC2",
      "max": [
        0.94127392768859863,
        0.995955228805542
      ],
      "min": [
        0.61949419975280762,
        0.86041909456253052
      ]
    },
    {
      "bufferView": 34,
      "componentType": 5121,
      "count": 234,
      "type": "SCALAR",
      "max": [
        98.0
      ],
      "min": [
        0.0
      ]
    }
  ],
  "asset": {
    "version": "2.0"
  },
  "buffers": [
    {
      "uri": "sm_fire_extinguisher.bin",
      "byteLength": 16254
    }
  ],
  "bufferViews": [
    {
      "buffer": 0,
      "byteLength": 336
    },
    {
      "buffer": 0,
      "byteOffset": 336,
      "byteLength": 336
    },
    {
      "buffer": 0,
      "byteOffset": 672,
      "byteLength": 448
    },
    {
      "buffer": 0,
      "byteOffset": 1120,
      "byteLength": 224
    },
    {
      "buffer": 0,
      "byteOffset": 1344,
      "byteLength": 72
    },
    {
      "buffer": 0,
      "byteOffset": 1416,
      "byteLength": 480
    },
    {
      "buffer": 0,
      "byteOffset": 1896,
      "byteLength": 480
    },
    {
      "buffer": 0,
      "byteOffset": 2376,
      "byteLength": 640
    },
    {
      "buffer": 0,
      "byteOffset": 3016,
      "byteLength": 320
    },
    {
      "buffer": 0,
      "byteOffset": 3336,
      "byteLength": 96
    },
    {
      "buffer": 0,
      "byteOffset": 3432,
      "byteLength": 696
    },
    {
      "buffer": 0,
      "byteOffset": 4128,
      "byteLength": 696
    },
    {
      "buffer": 0,
      "byteOffset": 4824,
      "byteLength": 928
    },
    {
      "buffer": 0,
      "byteOffset": 5752,
      "byteLength": 464
    },
    {
      "buffer": 0,
      "byteOffset": 6216,
      "byteLength": 132
    },
    {
      "buffer": 0,
      "byteOffset": 6348,
      "byteLength": 432
    },
    {
      "buffer": 0,
      "byteOffset": 6780,
      "byteLength": 432
    },
    {
      "buffer": 0,
      "byteOffset": 7212,
      "byteLength": 576
    },
    {
      "buffer": 0,
      "byteOffset": 7788,
      "byteLength": 288
    },
    {
      "buffer": 0,
      "byteOffset": 8076,
      "byteLength": 60
    },
    {
      "buffer": 0,
      "byteOffset": 8136,
      "byteLength": 564
    },
    {
      "buffer": 0,
      "byteOffset": 8700,
      "byteLength": 564
    },
    {
      "buffer": 0,
      "byteOffset": 9264,
      "byteLength": 752
    },
    {
      "buffer": 0,
      "byteOffset": 10016,
      "byteLength": 376
    },
    {
      "buffer": 0,
      "byteOffset": 10392,
      "byteLength": 72
    },
    {
      "buffer": 0,
      "byteOffset": 10464,
      "byteLength": 192
    },
    {
      "buffer": 0,
      "byteOffset": 10656,
      "byteLength": 192
    },
    {
      "buffer": 0,
      "byteOffset": 10848,
      "byteLength": 256
    },
    {
      "buffer": 0,
      "byteOffset": 11104,
      "byteLength": 128
    },
    {
      "buffer": 0,
      "byteOffset": 11232,
      "byteLength": 36
    },
    {
      "buffer": 0,
      "byteOffset": 11268,
      "byteLength": 1188
    },
    {
      "buffer": 0,
      "byteOffset": 12456,
      "byteLength": 1188
    },
    {
      "buffer": 0,
      "byteOffset": 13644,
      "byteLength": 1584
    },
    {
      "buffer": 0,
      "byteOffset": 15228,
      "byteLength": 792
    },
    {
      "buffer": 0,
      "byteOffset": 16020,
      "byteLength": 234
    }
  ],
  "images": [
    {
      "uri": "651964448T_extinguisher_AlbedoMain.png",
      "name": "T_extinguisher_Albedo"
    }
  ],
  "materials": [
    {
      "pbrMetallicRoughness": {
        "baseColorFactor": [
          0.8,
          0.8,
          0.8,
          1.0
        ],
        "baseColorTexture": {
          "index": 0
        },
        "metallicFactor": 0.0
      },
      "name": "extinguisher"
    }
  ],
  "meshes": [
    {
      "primitives": [
        {
          "attributes": {
            "POSITION": 0,
            "NORMAL": 1,
            "TANGENT": 2,
            "TEXCOORD_0": 3
          },
          "indices": 4,
          "material": 0
        }
      ],
      "name": "barometer_LOD2"
    },
    {
      "primitives": [
        {
          "attributes": {
            "POSITION": 5,
            "NORMAL": 6,
            "TANGENT": 7,
            "TEXCOORD_0": 8
          },
          "indices": 9,
          "material": 0
        }
      ],
      "name": "body_LOD2"
    },
    {
      "primitives": [
        {
          "attributes": {
            "POSITION": 10,
            "NORMAL": 11,
            "TANGENT": 12,
            "TEXCOORD_0": 13
          },
          "indices": 14,
          "material": 0
        }
      ],
      "name": "cone_LOD2"
    },
    {
      "primitives": [
        {
          "attributes": {
            "POSITION": 15,
            "NORMAL": 16,
            "TANGENT": 17,
            "TEXCOORD_0": 18
          },
          "indices": 19,
          "material": 0
        }
      ],
      "name": "handle_bottom_LOD2"
    },
    {
      "primitives": [
        {
          "attributes": {
            "POSITION": 20,
            "NORMAL": 21,
            "TANGENT": 22,
            "TEXCOORD_0": 23
          },
          "indices": 24,
          "material": 0
        }
      ],
      "name": "handle_top_LOD2"
    },
    {
      "primitives": [
        {
          "attributes": {
            "POSITION": 25,
            "NORMAL": 26,
            "TANGENT": 27,
            "TEXCOORD_0": 28
          },
          "indices": 29,
          "material": 0
        }
      ],
      "name": "pipe_LOD2"
    },
    {
      "primitives": [
        {
          "attributes": {
            "POSITION": 30,
            "NORMAL": 31,
            "TANGENT": 32,
            "TEXCOORD_0": 33
          },
          "indices": 34,
          "material": 0
        }
      ],
      "name": "valve_LOD2"
    }
  ],
  "nodes": [
    {
      "children": [
        1,
        2,
        3,
        4,
        5,
        6,
        7,
        8,
        9,
        10,
        11,
        12,
        13,
        14,
        15,
        16,
        17,
        18,
        19,
        20,
        21,
        22,
        23,
        24,
        25
      ],
      "name": "SM_Fire_Extinguisher"
    },
    {
      "rotation": [
        -0.7071068,
        0.0,
        0.0,
        0.7071067
      ],
      "scale": [
        100.0,
        100.0,
        100.0
      ],
      "translation": [
        0.00225259573,
        0.496219635,
        0.0148144923
      ],
      "name": "barometer_LOD0"
    },
    {
      "rotation": [
        -0.7071068,
        0.0,
        0.0,
        0.7071067
      ],
      "scale": [
        100.0,
        100.0,
        100.0
      ],
      "translation": [
        0.00225259573,
        0.496219635,
        0.0148144923
      ],
      "name": "barometer_LOD1"
    },
    {
      "mesh": 0,
      "rotation": [
        -0.7071068,
        0.0,
        0.0,
        0.7071067
      ],
      "scale": [
        100.0,
        100.0,
        100.0
      ],
      "translation": [
        0.00225259573,
        0.496219635,
        0.0148144923
      ],
      "name": "barometer_LOD2"
    },
    {
      "rotation": [
        -0.7071068,
        0.0,
        0.0,
        0.7071067
      ],
      "scale": [
        100.0,
        100.0,
        100.0
      ],
      "translation": [
        0.0014717856,
        0.0,
        -0.00404741056
      ],
      "name": "body_LOD0"
    },
    {
      "rotation": [
        -0.7071068,
        0.0,
        0.0,
        0.7071067
      ],
      "scale": [
        100.0,
        100.0,
        100.0
      ],
      "translation": [
        0.0014717856,
        0.0,
        -0.00404741056
      ],
      "name": "body_LOD1"
    },
    {
      "mesh": 1,
      "rotation": [
        -0.7071068,
        0.0,
        0.0,
        0.7071067
      ],
      "scale": [
        100.0,
        100.0,
        100.0
      ],
      "translation": [
        0.0014717856,
        0.0,
        -0.00404741056
      ],
      "name": "body_LOD2"
    },
    {
      "rotation": [
        -0.7071068,
        0.0,
        0.0,
        0.7071067
      ],
      "scale": [
        100.0,
        100.0,
        100.0
      ],
      "translation": [
        -0.08081019,
        0.483895719,
        -0.005318996
      ],
      "name": "cone_LOD0"
    },
    {
      "rotation": [
        -0.7071068,
        0.0,
        0.0,
        0.7071067
      ],
      "scale": [
        100.0,
        100.0,
        100.0
      ],
      "translation": [
        -0.08081019,
        0.483895719,
        -0.005318996
      ],
      "name": "cone_LOD1"
    },
    {
      "mesh": 2,
      "rotation": [
        -0.7071068,
        0.0,
        0.0,
        0.7071067
      ],
      "scale": [
        100.0,
        100.0,
        100.0
      ],
      "translation": [
        -0.08081019,
        0.483895719,
        -0.005318996
      ],
      "name": "cone_LOD2"
    },
    {
      "rotation": [
        -0.7071068,
        0.0,
        0.0,
        0.7071067
      ],
      "scale": [
        100.0,
        100.0,
        100.0
      ],
      "name": "handle_bottom_LOD0"
    },
    {
      "rotation": [
        -0.7071068,
        0.0,
        0.0,
        0.7071067
      ],
      "scale": [
        100.0,
        100.0,
        100.0
      ],
      "name": "handle_bottom_LOD1"
    },
    {
      "mesh": 3,
      "rotation": [
        -0.7071068,
        0.0,
        0.0,
        0.7071067
      ],
      "scale": [
        100.0,
        100.0,
        100.0
      ],
      "name": "handle_bottom_LOD2"
    },
    {
      "rotation": [
        -0.7071068,
        0.0,
        0.0,
        0.7071067
      ],
      "scale": [
        100.0,
        100.0,
        100.0
      ],
      "translation": [
        0.00143230439,
        0.5151852,
        -0.00433014426
      ],
      "name": "handle_top_LOD0"
    },
    {
      "rotation": [
        -0.7071068,
        0.0,
        0.0,
        0.7071067
      ],
      "scale": [
        100.0,
        100.0,
        100.0
      ],
      "translation": [
        0.00143230439,
        0.5151852,
        -0.00433014426
      ],
      "name": "handle_top_LOD1"
    },
    {
      "mesh": 4,
      "rotation": [
        -0.7071068,
        0.0,
        0.0,
        0.7071067
      ],
      "scale": [
        100.0,
        100.0,
        100.0
      ],
      "translation": [
        0.00143230439,
        0.5151852,
        -0.00433014426
      ],
      "name": "handle_top_LOD2"
    },
    {
      "rotation": [
        -0.7071068,
        0.0,
        0.0,
        0.7071067
      ],
      "scale": [
        100.0,
        100.0,
        100.0
      ],
      "translation": [
        0.0243340135,
        0.527465,
        -0.09536074
      ],
      "name": "pin_LOD0"
    },
    {
      "rotation": [
        -0.7071068,
        0.0,
        0.0,
        0.7071067
      ],
      "scale": [
        100.0,
        100.0,
        100.0
      ],
      "translation": [
        0.0243340135,
        0.527465,
        -0.09536074
      ],
      "name": "pin_LOD1"
    },
    {
      "rotation": [
        -0.7071068,
        0.0,
        0.0,
        0.7071067
      ],
      "scale": [
        100.0,
        100.0,
        100.0
      ],
      "translation": [
        -0.03173272,
        0.500219762,
        -0.004036581
      ],
      "name": "pipe_LOD0"
    },
    {
      "rotation": [
        -0.7071068,
        0.0,
        0.0,
        0.7071067
      ],
      "scale": [
        100.0,
        100.0,
        100.0
      ],
      "translation": [
        -0.03173272,
        0.500219762,
        -0.004036581
      ],
      "name": "pipe_LOD1"
    },
    {
      "mesh": 5,
      "rotation": [
        -0.7071068,
        0.0,
        0.0,
        0.7071067
      ],
      "scale": [
        100.0,
        100.0,
        100.0
      ],
      "translation": [
        -0.03173272,
        0.500219762,
        -0.004036581
      ],
      "name": "pipe_LOD2"
    },
    {
      "rotation": [
        -0.7071068,
        0.0,
        0.0,
        0.7071067
      ],
      "scale": [
        100.0,
        100.0,
        100.0
      ],
      "translation": [
        0.009771958,
        0.5366495,
        0.0146729369
      ],
      "name": "tag_LOD0"
    },
    {
      "rotation": [
        -0.7071068,
        0.0,
        0.0,
        0.7071067
      ],
      "scale": [
        100.0,
        100.0,
        100.0
      ],
      "translation": [
        0.009771958,
        0.5366495,
        0.0146729369
      ],
      "name": "tag_LOD1"
    },
    {
      "rotation": [
        -0.7071068,
        0.0,
        0.0,
        0.7071067
      ],
      "scale": [
        100.0,
        100.0,
        100.0
      ],
      "translation": [
        0.00429401034,
        0.487075746,
        -0.00406516856
      ],
      "name": "valve_LOD0"
    },
    {
      "rotation": [
        -0.7071068,
        0.0,
        0.0,
        0.7071067
      ],
      "scale": [
        100.0,
        100.0,
        100.0
      ],
      "translation": [
        0.00429401034,
        0.487075746,
        -0.00406516856
      ],
      "name": "valve_LOD1"
    },
    {
      "mesh": 6,
      "rotation": [
        -0.7071068,
        0.0,
        0.0,
        0.7071067
      ],
      "scale": [
        100.0,
        100.0,
        100.0
      ],
      "translation": [
        0.00429401034,
        0.487075746,
        -0.00406516856
      ],
      "name": "valve_LOD2"
    }
  ],
  "samplers": [
    {}
  ],
  "scene": 0,
  "scenes": [
    {
      "nodes": [
        0
      ],
      "name": "sm_fire_extinguisher"
    }
  ],
  "textures": [
    {
      "sampler": 0,
      "source": 0,
      "name": "651964448T_extinguisher_AlbedoMain"
    }
  ]
}